<svg enable-background="new 0 0 32 32" height="32" viewBox="0 0 32 32" width="32" xmlns="http://www.w3.org/2000/svg"><g fill="#ffffff"><path d="m31.708 15.286-9.002-8.999c-.395-.394-1.035-.394-1.431 0-.395.394-.395 1.034 0 1.428l8.288 8.285-8.287 8.285c-.395.394-.395 1.034 0 1.429.395.394 1.036.394 1.431 0l9.002-8.999c.388-.39.388-1.04-.001-1.429z"/><path d="m10.725 6.287c-.395-.394-1.036-.394-1.431 0l-9.002 8.999c-.39.389-.39 1.039 0 1.429l9.002 8.999c.395.394 1.035.394 1.431 0 .395-.394.395-1.034 0-1.428l-8.288-8.286 8.287-8.285c.396-.394.396-1.034.001-1.428z"/></g></svg>